<svg xmlns="http://www.w3.org/2000/svg" width="1086" height="1458" viewBox="0 0 1086 1458"><defs><radialGradient id="glow" cx="50%" cy="42%" r="58%"><stop offset="0" stop-color="#fffdf9"/><stop offset="1" stop-color="#f7f3ee"/></radialGradient><linearGradient id="sage" x1="0" x2="1"><stop stop-color="#d7e4df"/><stop offset="1" stop-color="#8eaaa3"/></linearGradient><filter id="shadow"><feDropShadow dx="0" dy="8" stdDeviation="7" flood-color="#173b35" flood-opacity=".18"/></filter></defs><rect width="1086" height="1458" fill="url(#glow)"/><circle cx="1110" cy="110" r="292" fill="#a9beb8" opacity=".85"/><circle cx="-80" cy="1430" r="355" fill="#8fb4ad" opacity=".72"/><path d="M0 1168 C210 1090 280 1296 480 1204 C716 1094 808 1104 1086 1038 L1086 1458 L0 1458 Z" fill="url(#sage)" opacity=".74"/><path d="M790 1458 L1086 1458 L1086 1035 C1015 1050 918 1080 790 1180 Z" fill="#d7e5e1" opacity=".62"/><g opacity=".62" fill="#89a79f"><circle cx="50" cy="44" r="2.6"/><circle cx="79" cy="44" r="2.6"/><circle cx="108" cy="44" r="2.6"/><circle cx="137" cy="44" r="2.6"/><circle cx="166" cy="44" r="2.6"/><circle cx="195" cy="44" r="2.6"/><circle cx="224" cy="44" r="2.6"/><circle cx="253" cy="44" r="2.6"/><circle cx="50" cy="72" r="2.6"/><circle cx="79" cy="72" r="2.6"/><circle cx="108" cy="72" r="2.6"/><circle cx="137" cy="72" r="2.6"/><circle cx="166" cy="72" r="2.6"/><circle cx="195" cy="72" r="2.6"/><circle cx="224" cy="72" r="2.6"/><circle cx="253" cy="72" r="2.6"/><circle cx="50" cy="100" r="2.6"/><circle cx="79" cy="100" r="2.6"/><circle cx="108" cy="100" r="2.6"/><circle cx="137" cy="100" r="2.6"/><circle cx="166" cy="100" r="2.6"/><circle cx="195" cy="100" r="2.6"/><circle cx="224" cy="100" r="2.6"/><circle cx="253" cy="100" r="2.6"/><circle cx="50" cy="128" r="2.6"/><circle cx="79" cy="128" r="2.6"/><circle cx="108" cy="128" r="2.6"/><circle cx="137" cy="128" r="2.6"/><circle cx="166" cy="128" r="2.6"/><circle cx="195" cy="128" r="2.6"/><circle cx="224" cy="128" r="2.6"/><circle cx="253" cy="128" r="2.6"/><circle cx="50" cy="156" r="2.6"/><circle cx="79" cy="156" r="2.6"/><circle cx="108" cy="156" r="2.6"/><circle cx="137" cy="156" r="2.6"/><circle cx="166" cy="156" r="2.6"/><circle cx="195" cy="156" r="2.6"/><circle cx="224" cy="156" r="2.6"/><circle cx="253" cy="156" r="2.6"/><circle cx="50" cy="184" r="2.6"/><circle cx="79" cy="184" r="2.6"/><circle cx="108" cy="184" r="2.6"/><circle cx="137" cy="184" r="2.6"/><circle cx="166" cy="184" r="2.6"/><circle cx="195" cy="184" r="2.6"/><circle cx="224" cy="184" r="2.6"/><circle cx="253" cy="184" r="2.6"/><circle cx="50" cy="212" r="2.6"/><circle cx="79" cy="212" r="2.6"/><circle cx="108" cy="212" r="2.6"/><circle cx="137" cy="212" r="2.6"/><circle cx="166" cy="212" r="2.6"/><circle cx="195" cy="212" r="2.6"/><circle cx="224" cy="212" r="2.6"/><circle cx="253" cy="212" r="2.6"/></g><g opacity=".55" fill="#ffffff"><circle cx="828" cy="1195" r="2"/><circle cx="853" cy="1195" r="2"/><circle cx="878" cy="1195" r="2"/><circle cx="903" cy="1195" r="2"/><circle cx="928" cy="1195" r="2"/><circle cx="953" cy="1195" r="2"/><circle cx="978" cy="1195" r="2"/><circle cx="1003" cy="1195" r="2"/><circle cx="828" cy="1218" r="2"/><circle cx="853" cy="1218" r="2"/><circle cx="878" cy="1218" r="2"/><circle cx="903" cy="1218" r="2"/><circle cx="928" cy="1218" r="2"/><circle cx="953" cy="1218" r="2"/><circle cx="978" cy="1218" r="2"/><circle cx="1003" cy="1218" r="2"/><circle cx="828" cy="1241" r="2"/><circle cx="853" cy="1241" r="2"/><circle cx="878" cy="1241" r="2"/><circle cx="903" cy="1241" r="2"/><circle cx="928" cy="1241" r="2"/><circle cx="953" cy="1241" r="2"/><circle cx="978" cy="1241" r="2"/><circle cx="1003" cy="1241" r="2"/><circle cx="828" cy="1264" r="2"/><circle cx="853" cy="1264" r="2"/><circle cx="878" cy="1264" r="2"/><circle cx="903" cy="1264" r="2"/><circle cx="928" cy="1264" r="2"/><circle cx="953" cy="1264" r="2"/><circle cx="978" cy="1264" r="2"/><circle cx="1003" cy="1264" r="2"/><circle cx="828" cy="1287" r="2"/><circle cx="853" cy="1287" r="2"/><circle cx="878" cy="1287" r="2"/><circle cx="903" cy="1287" r="2"/><circle cx="928" cy="1287" r="2"/><circle cx="953" cy="1287" r="2"/><circle cx="978" cy="1287" r="2"/><circle cx="1003" cy="1287" r="2"/><circle cx="828" cy="1310" r="2"/><circle cx="853" cy="1310" r="2"/><circle cx="878" cy="1310" r="2"/><circle cx="903" cy="1310" r="2"/><circle cx="928" cy="1310" r="2"/><circle cx="953" cy="1310" r="2"/><circle cx="978" cy="1310" r="2"/><circle cx="1003" cy="1310" r="2"/><circle cx="828" cy="1333" r="2"/><circle cx="853" cy="1333" r="2"/><circle cx="878" cy="1333" r="2"/><circle cx="903" cy="1333" r="2"/><circle cx="928" cy="1333" r="2"/><circle cx="953" cy="1333" r="2"/><circle cx="978" cy="1333" r="2"/><circle cx="1003" cy="1333" r="2"/><circle cx="828" cy="1356" r="2"/><circle cx="853" cy="1356" r="2"/><circle cx="878" cy="1356" r="2"/><circle cx="903" cy="1356" r="2"/><circle cx="928" cy="1356" r="2"/><circle cx="953" cy="1356" r="2"/><circle cx="978" cy="1356" r="2"/><circle cx="1003" cy="1356" r="2"/></g><path d="M148 1146 L148 500 C148 298 316 152 548 152 C780 152 938 312 938 514 L938 1038 C938 1182 778 1262 550 1262 C318 1262 148 1185 148 1146 Z" fill="none" stroke="#c3a06b" stroke-width="2"/><circle cx="542" cy="406" r="59" fill="none" stroke="#c3a06b" stroke-width="1.5"/><path d="M542 356 v14 M542 442 v14 M492 406 h14 M578 406 h14" stroke="#c3a06b" stroke-width="2"/><path d="M515 440 L541 389 L570 374 L545 426 Z" fill="#c3a06b" opacity=".72"/><circle cx="542" cy="406" r="6" fill="#fff"/><text x="543" y="585" text-anchor="middle" font-family="Noto Serif KR, Batang, serif" font-size="76" font-weight="700" fill="#173f3a" filter="url(#shadow)">직업선호도 검사</text><text x="543" y="730" text-anchor="middle" font-family="Noto Serif KR, Batang, serif" font-size="76" font-weight="700" fill="#b79563" filter="url(#shadow)">상담 안내 가이드</text><line x1="480" y1="825" x2="606" y2="825" stroke="#b8aa9b"/><text x="543" y="883" text-anchor="middle" font-family="Noto Sans KR, sans-serif" font-size="27" fill="#5e6b66">나를 이해하고, 더 나은 선택으로</text><text x="543" y="926" text-anchor="middle" font-family="Noto Sans KR, sans-serif" font-size="27" fill="#5e6b66">나만의 커리어를 디자인하세요.</text><g transform="translate(306 1010)"><circle cx="36" cy="36" r="36" fill="#dfe8e4"/><circle cx="36" cy="28" r="11" fill="none" stroke="#73958d" stroke-width="2"/><path d="M17 57 C20 43 52 43 55 57" fill="none" stroke="#73958d" stroke-width="2"/><line x1="102" y1="0" x2="102" y2="72" stroke="#c7b8a8"/></g><g transform="translate(450 1010)"><circle cx="36" cy="36" r="36" fill="#ece6df"/><circle cx="32" cy="32" r="15" fill="none" stroke="#9a8260" stroke-width="2"/><line x1="45" y1="45" x2="58" y2="58" stroke="#9a8260" stroke-width="3"/><line x1="102" y1="0" x2="102" y2="72" stroke="#c7b8a8"/></g><g transform="translate(594 1010)"><circle cx="36" cy="36" r="36" fill="#dfe8e4"/><rect x="20" y="39" width="8" height="18" fill="none" stroke="#73958d" stroke-width="2"/><rect x="34" y="28" width="8" height="29" fill="none" stroke="#73958d" stroke-width="2"/><rect x="48" y="20" width="8" height="37" fill="none" stroke="#73958d" stroke-width="2"/><path d="M22 28 L38 17 L53 11" fill="none" stroke="#73958d" stroke-width="2"/><line x1="102" y1="0" x2="102" y2="72" stroke="#c7b8a8"/></g><g transform="translate(738 1010)"><circle cx="36" cy="36" r="36" fill="#ece6df"/><circle cx="36" cy="37" r="20" fill="none" stroke="#9a8260" stroke-width="2"/><circle cx="36" cy="37" r="8" fill="none" stroke="#9a8260" stroke-width="2"/><path d="M47 25 L63 10 M57 10 h8 v8" stroke="#9a8260" stroke-width="2" fill="none"/></g></svg>